# xmcd CD database file
#
# Track frame offsets:
#	150
#	11389
#	27998
#	48933
#	59124
#	73121
#	85232
#	97471
#	107661
#	119531
#	131567
#	144797
#	156033
#	168396
#	178858
#	188768
#
# Disc length: 2663 seconds
#
# Revision: 0
# Processed by: cddbd v1.5.2PL0 Copyright (c) Steve Scherf et al.
# Submitted via: CDex 1.40Beta9
#
DISCID=e10a6510
DTITLE=Johnny Winter - The Essential Winter Collection
DYEAR=2007
DGENRE=Blues
TTITLE0=Avocado Green (Winter)
TTITLE1=Kind Hearted Woman (Winter)
TTITLE2=Going Down Slow (Winter)
TTITLE3=38, 32, 20 (Winter)
TTITLE4=Low Down Gal Of Mine (Winter)
TTITLE5=Parchman Farm (Allison)
TTITLE6=Leave My Women Alone (Charles)
TTITLE7=Shed So Many Tears (Winter)
TTITLE8=Bad News (Fuego,Brint)
TTITLE9=Livin' In The Blues (Collins)
TTITLE10=Five After 4 A.M. (Winter)
TTITLE11=I Can't Believe You Want To Leave (Winter)
TTITLE12=Leavin' Blues (Winter)
TTITLE13=Out Of Sight (Wright)
TTITLE14=By The Light Of The Silvery Moon (Winter)
TTITLE15=Gangster Of Love (Watson)
EXTD=YEAR: 2007 ID3G: 0
EXTT0=
EXTT1=
EXTT2=
EXTT3=
EXTT4=
EXTT5=
EXTT6=
EXTT7=
EXTT8=
EXTT9=
EXTT10=
EXTT11=
EXTT12=
EXTT13=
EXTT14=
EXTT15=
PLAYORDER=
